<?xml version="1.0" encoding="UTF-8" standalone="no"?>
<svg
   xmlns:dc="http://purl.org/dc/elements/1.1/"
   xmlns:cc="http://creativecommons.org/ns#"
   xmlns:rdf="http://www.w3.org/1999/02/22-rdf-syntax-ns#"
   xmlns:svg="http://www.w3.org/2000/svg"
   xmlns="http://www.w3.org/2000/svg"
   xmlns:sodipodi="http://sodipodi.sourceforge.net/DTD/sodipodi-0.dtd"
   xmlns:inkscape="http://www.inkscape.org/namespaces/inkscape"
   color-rendering="auto"
   color-interpolation="auto"
   text-rendering="auto"
   stroke-miterlimit="10"
   shape-rendering="auto"
   font-weight="normal"
   font-style="normal"
   font-size="12"
   image-rendering="auto"
   id="svg2"
   version="1.1"
   inkscape:version="0.48.3.1 r9886"
   width="206.7188"
   height="259.875"
   sodipodi:docname="thumbs_down_sign.svg"
   style="font-size:12px;font-style:normal;font-weight:normal;fill:#000000;fill-opacity:1;stroke:#000000;stroke-width:1;stroke-linecap:square;stroke-linejoin:miter;stroke-miterlimit:10;stroke-opacity:1;stroke-dasharray:none;stroke-dashoffset:0;font-family:Dialog">
  <metadata
     id="metadata13">
    <rdf:RDF>
      <cc:Work
         rdf:about="">
        <dc:format>image/svg+xml</dc:format>
        <dc:type
           rdf:resource="http://purl.org/dc/dcmitype/StillImage" />
      </cc:Work>
    </rdf:RDF>
  </metadata>
  <sodipodi:namedview
     pagecolor="#ffffff"
     bordercolor="#666666"
     borderopacity="1"
     objecttolerance="10"
     gridtolerance="10"
     guidetolerance="10"
     inkscape:pageopacity="0"
     inkscape:pageshadow="2"
     inkscape:window-width="640"
     inkscape:window-height="480"
     id="namedview11"
     showgrid="false"
     fit-margin-top="0"
     fit-margin-left="0"
     fit-margin-right="0"
     fit-margin-bottom="0"
     inkscape:zoom="0.22425739"
     inkscape:cx="360.51604"
     inkscape:cy="-190.64989"
     inkscape:window-x="0"
     inkscape:window-y="24"
     inkscape:window-maximized="0"
     inkscape:current-layer="svg2" />
  <!--Unicode Character 'THUMBS DOWN SIGN' (U+1F44E)-->
  <defs
     id="genericDefs" />
  <g
     id="g5"
     transform="translate(-11.5312,-75.6562)">
    <g
       id="g7">
      <path
         d="m 218.25,198.9844 q 0,4.6406 -5.4844,13.3594 -4.3594,6.1874 -8.5781,12.5156 -3.6563,6.8906 -7.1719,13.6406 -4.3594,8.0156 -9.7031,12.0938 -5.3437,4.0781 -16.5937,4.0781 -7.1719,0 -23.2032,-5.3438 -7.4531,-2.5312 -19.4062,-5.2031 -1.9688,2.5312 -1.9688,6.75 0,3.2344 2.5313,6.75 2.3906,2.9531 4.6406,5.9062 5.9063,9 5.9063,24.75 0,29.3907 -25.7344,43.4532 -6.8906,3.7968 -10.6875,3.7968 -15.8907,0 -20.6719,-10.6874 -1.2656,-2.8126 -1.2656,-14.2032 0,-3.9375 4.0781,-13.0781 4.0781,-9.1406 4.0781,-10.9687 0,-4.7813 -1.2656,-9.9844 -1.6875,-6.8906 -19.2656,-19.5469 -7.1719,-5.2031 -15.4688,-14.4844 -14.4844,-16.3125 -16.0312,-27.8437 -0.4219,-2.8125 -1.125,-4.6406 -7.0313,-1.125 -14.0625,-2.1094 -10.2657,-2.1094 -10.2657,-6.6094 l 0,-2.3906 q 0,-3.5156 3.7969,-5.625 17.4375,2.5312 18.2813,2.5312 2.1094,0 2.1094,-5.2031 0,-22.2187 11.6718,-32.2031 2.9532,-2.5313 7.3125,-3.7969 3.9375,-0.9844 7.875,-2.1094 0.8438,-0.2812 2.3907,-1.8281 0.7031,-0.5625 5.3437,-0.5625 l 0,2.8125 q -1.5469,0.8438 -4.3594,3.0938 -2.3906,2.6718 -6.3281,10.3359 -3.9375,7.6641 -4.6406,11.1797 -0.1406,0.7031 -0.1406,7.1718 0,1.9688 -1.2657,5.625 -1.2656,3.6563 -1.2656,5.4844 0,1.4063 0.6328,4.0078 0.6328,2.6016 0.6328,4.0078 0,14.2032 18,30.9376 19.8281,18.4218 27.2813,33.3281 0.4218,-0.8438 1.2656,-3.9375 l 4.3594,0 0,14.9062 q 0,1.4063 -0.5625,4.0782 -0.5625,2.6718 -0.7031,3.7968 -0.4219,4.9219 -4.2188,15.1875 -3.5156,9.7031 -3.5156,15.3281 0,3.5157 2.9531,3.5157 7.875,0 14.9063,-4.6407 0.7031,-0.5624 4.5,-5.3437 8.4374,-10.9687 8.4374,-28.125 0,-3.9375 -2.8124,-9.8437 -2.8126,-3.375 -7.7344,-10.5469 -2.6719,-4.9219 -2.6719,-13.3594 0,-19.125 13.6406,-19.125 4.5,0 19.4063,4.9219 16.875,5.7656 21.0937,6.4687 2.3907,0.4219 7.5938,0.4219 5.4843,0 7.1719,-1.8281 2.8124,-3.0938 7.4531,-14.4844 5.4843,-13.6406 6.75,-16.0313 3.5156,-3.6562 7.4531,-11.8124 -1.9688,-1.5469 -17.0156,-7.5938 -3.9375,-2.1094 -11.9532,-5.625 -4.0781,-0.7031 -12.0937,-2.3906 -3.6563,-1.5469 -10.6875,-3.375 -2.25,1.5468 -12.2344,12.7968 -9.9844,11.25 -9.9844,12.375 0,-0.4218 9.2813,8.0157 -2.25,-9.1407 -2.25,-7.3125 0,-4.7813 5.3437,-4.7813 3.7969,0 6.1876,2.25 0.7031,1.4063 2.1796,3.8672 1.4766,2.4609 7.3828,5.8359 4.7813,2.25 9.5626,4.3594 7.5937,3.6563 7.5937,5.4844 l 0,3.7969 q -6.4687,1.5469 -7.0313,1.5469 -2.25,0 -6.3984,-1.4766 -4.1484,-1.4766 -6.3984,-1.4766 -2.25,0 -7.4532,1.8282 -5.2031,1.8281 -8.8593,1.8281 -3.0938,0 -11.7422,-7.5235 -8.6485,-7.5234 -10.1953,-10.8984 -0.7032,-1.5469 -0.7032,-3.9375 0,-4.7813 4.5,-14.7656 -10.125,-6.3281 -10.2656,-6.4688 -5.2031,-4.2187 -5.2031,-10.2656 0,-1.2656 0.2109,-3.7969 0.211,-2.5312 0.211,-3.7968 0,-7.7344 -9.4219,-11.8126 -7.875,-2.5312 -15.6094,-4.9218 l 0,-6.3282 q 5.0625,-2.1093 9,-2.1093 11.6719,0 22.3594,10.125 2.1094,-0.4219 2.25,-1.8281 l -1.125,-1.5469 q -3.7969,-5.7657 -3.7969,-12.5157 0,-4.5 2.1797,-9.1406 2.1797,-4.6406 2.1797,-4.9218 0,-0.1407 -1.2656,-1.9688 -1.2656,-1.8281 -1.2656,-4.6406 0,0.9844 0.8437,-13.3594 -2.25,-2.8125 -8.4375,-6.75 -6.75,-4.2188 -9.7031,-4.2188 -3.9375,0 -14.0625,2.6719 -4.6406,1.2657 -6.75,4.7813 -2.5313,5.0625 -5.0625,10.125 -3.5157,6.8906 -5.9766,8.2968 -2.4609,1.4063 -6.1172,1.4063 -3.6562,0 -10.9687,-0.7734 -7.3125,-0.7735 -10.9688,-0.7735 -1.125,0 -3.375,0.7032 -2.25,0.7031 -3.375,0.7031 -2.6718,0 -6.1172,-3.0938 -3.4453,-3.0937 -3.4453,-5.625 0,-8.2969 14.3438,-8.2969 11.1093,0 20.5312,1.5469 0.8438,-1.125 6.8907,-12.0937 4.0781,-7.4532 9.1406,-9.8438 2.5312,-1.125 13.6406,-2.8125 10.5469,-1.5469 14.2031,-1.5469 3.0938,0 11.7422,6.3282 8.6485,6.3281 9.3516,6.3281 -0.9844,0 3.375,-2.3906 5.625,-3.0938 27.7031,-3.0938 30.7969,0 42.8906,11.5313 2.9532,2.8125 4.5,8.7187 0.1406,0.5625 0.1406,1.6875 0,5.625 -1.2656,8.1563 -2.1094,3.375 -4.2187,6.75 2.8125,1.4062 7.7343,5.9062 6.3282,8.8594 6.3282,12.9375 0,4.0782 -2.7422,8.8594 -2.7422,4.7812 -2.7422,4.7812 0,0.2813 2.9531,3.5157 2.9531,3.2343 3.2344,3.6562 4.7813,6.8907 4.7813,12.0938 0,2.8125 -1.2657,5.2031 -1.2656,2.3906 -1.2656,3.375 0,0.9844 0.1406,1.4062 10.5469,7.3126 10.5469,17.5782 z m -35.7188,-88.3125 0,-4.2188 q -2.6718,-1.6875 -8.2968,-4.3593 -9.5625,-3.2344 -28.125,-3.2344 -10.6875,0 -16.875,1.5468 -0.8438,3.9376 -2.5313,11.9532 0.7031,0.2812 1.6875,0.5625 2.5313,0 7.4532,-0.2813 4.9218,-0.2812 7.4531,-0.2812 10.6875,0 26.2969,1.8281 10.8281,1.2656 10.8281,1.2656 2.1093,-5.0625 2.1093,-4.7812 z m 9,30.9375 q 0,-3.7969 -4.3593,-6.8906 -1.8281,-1.2657 -8.6485,-3.5157 -6.8203,-2.25 -8.9296,-2.25 l -14.9063,0 q -2.6719,0 -8.0859,-0.7031 -5.4141,-0.7031 -8.086,-0.7031 -8.0156,0 -13.3594,3.5156 0,0 0,4.7813 0,3.0937 1.125,4.7812 l 26.2969,0 q 1.2657,0 6.3281,1.7578 5.0626,1.7578 6.75,2.0391 3.5157,0.1406 10.5469,0.8437 1.4063,0.1406 6.6094,1.4063 3.9375,0.9843 6.6094,0.9843 2.1093,-4.6406 2.1093,-6.0468 z m 7.0313,31.0781 q 0,-1.9687 -2.9531,-5.3437 -2.9532,-3.375 -5.2032,-4.5 -10.9687,-1.2657 -27.2812,-3.7969 -3.0938,-1.2657 -9.5625,-3.2344 -3.6563,-0.7031 -9.7031,-0.7031 l -14.4844,0 q -9.1406,9.4218 -9.7031,17.0156 l 11.3906,7.1719 q 4.2187,-5.625 8.5781,-11.25 5.4844,-6.3281 11.9532,-6.3281 0.7031,0 7.5234,2.7421 6.8203,2.7422 8.5078,3.1641 10.4062,2.3906 29.25,9.5625 1.6875,-2.3906 1.6875,-4.5 z"
         id="path9"
         inkscape:connector-curvature="0"
         style="stroke:none" />
    </g>
  </g>
</svg>
